# 3ds Max Wavefront OBJ Exporter v0.97b - (c)2007 guruware
# File Created: 14.10.2020 20:47:47

mtllib box.mtl

#
# object Box003
#

v  -10.000000 -10.000000 0.000000
v  -10.000000 10.000000 0.000000
v  10.000000 10.000000 0.000000
v  10.000000 -10.000000 0.000000
v  -10.000000 -10.000000 20.000000
v  10.000000 -10.000000 20.000000
v  10.000000 10.000000 20.000000
v  -10.000000 10.000000 20.000000
# 8 vertices

vn -0.577350 -0.577350 -0.577350
vn -0.577350 0.577350 -0.577350
vn 0.577350 0.577350 -0.577350
vn 0.577350 -0.577350 -0.577350
vn -0.577350 -0.577350 0.577350
vn 0.577350 -0.577350 0.577350
vn 0.577350 0.577350 0.577350
vn -0.577350 0.577350 0.577350
# 8 vertex normals

vt 1.000000 0.000000 0.000000
vt 1.000000 1.000000 0.000000
vt 0.000000 1.000000 0.000000
vt 0.000000 0.000000 0.000000
# 4 texture coords

o Box003
g Box003
usemtl wire_153228214
s 2
f -8/-4/-8 -7/-3/-7 -6/-2/-6 -5/-1/-5 
s 4
f -4/-1/-4 -3/-4/-3 -2/-3/-2 -1/-2/-1 
s 8
f -8/-1/-8 -5/-4/-5 -3/-3/-3 -4/-2/-4 
s 16
f -5/-1/-5 -6/-4/-6 -2/-3/-2 -3/-2/-3 
s 32
f -6/-1/-6 -7/-4/-7 -1/-3/-1 -2/-2/-2 
s 64
f -7/-1/-7 -8/-4/-8 -4/-3/-4 -1/-2/-1 
# 6 polygons

